#!OML:ASF H:\GeneralSubjects\Female5\Project 1\Capture day 1\Session 1\Female5.ASF
:FULLY-SPECIFIED
:DEGREES
143
root -17.4713 14.968 4.57811 10.4253 -97.9573 8.05794
lowerback 13.9588 3.03094 0.228748
upperback -10.625 4.44223 2.63707
thorax -20.726 2.08745 1.66485
lowerneck -21.0917 0.482889 -0.521464
upperneck 12.4165 1.3217 -3.08392
head 7.26727 0.292928 -0.775291
rclavicle -2.1183e-014 -4.77083e-015
rhumerus 11.1537 44.2562 -71.1992
rradius 110.561
rwrist -42.2668
rhand -48.0801 -36.7321
rfingers 7.12502
rthumb -20.7454 -65.6431
lclavicle -2.1183e-014 -4.77083e-015
lhumerus 9.79298 -42.2561 83.745
lradius 103.856
lwrist -7.07424
lhand -51.9649 59.4949
lfingers 7.12502
lthumb -24.4739 87.9513
rfemur 3.70073 -6.0543 17.4424
rtibia 29.8434
rfoot -36.5699 -20.3095
rtoes -4.77745
lfemur -52.8524 -5.53998 -28.2278
ltibia 46.0993
lfoot -9.98726 -5.06919
ltoes -17.8508
144
root -17.5844 15.0485 4.58609 11.1515 -97.9131 7.60358
lowerback 13.6818 3.00709 -0.250462
upperback -10.5711 4.29735 2.66761
thorax -20.5005 2.09982 2.02519
lowerneck -22.8193 -0.226076 -0.356445
upperneck 14.7076 0.450637 -3.30094
head 8.31023 -0.178684 -1.00293
rclavicle 5.91384e-015 -7.15625e-015
rhumerus 10.3215 44.7817 -71.0746
rradius 109.715
rwrist -43.363
rhand -48.8441 -36.4979
rfingers 7.12502
rthumb -21.4793 -65.3271
lclavicle 5.91384e-015 -7.15625e-015
lhumerus 9.05482 -42.9278 83.9326
lradius 102.876
lwrist -8.01719
lhand -52.6612 63.4463
lfingers 7.12502
lthumb -25.1412 -91.8108
rfemur 2.62473 -6.54229 18.0208
rtibia 30.6754
rfoot -35.8025 -20.2862
rtoes -5.35509
lfemur -52.1202 -5.79741 -28.343
ltibia 45.2563
lfoot -9.89877 -4.5992
ltoes -17.3924
145
root -17.6794 15.1296 4.59519 11.7026 -97.9958 7.27148
lowerback 13.6399 2.98609 -0.65985
upperback -10.5225 4.18412 2.72109
thorax -20.4433 2.1163 2.35497
lowerneck -22.696 -0.435617 -0.890897
upperneck 14.9978 0.16984 -2.41715
head 8.38056 -0.245987 -0.655131
rclavicle -3.46134e-014 -3.65764e-014
rhumerus 9.27921 45.4327 -71.2207
rradius 108.695
rwrist -44.0208
rhand -49.12 -36.6081
rfingers 7.12502
rthumb -21.7442 -65.4068
lclavicle -3.46134e-014 -3.65764e-014
lhumerus 8.02689 -43.3938 84.1423
lradius 101.803
lwrist -7.60218
lhand -53.1294 65.7109
lfingers 7.12502
lthumb -25.5897 -94.0118
rfemur 2.16842 -6.64507 18.6278
rtibia 30.4984
rfoot -35.4054 -19.6147
rtoes -2.95328
lfemur -51.1972 -5.76489 -28.4786
ltibia 44.0957
lfoot -9.774 -4.37703
ltoes -16.1901
146
root -17.7618 15.2063 4.60616 11.6132 -98.1864 7.55268
lowerback 13.7183 2.99067 -0.931941
upperback -10.4718 4.14359 2.79665
thorax -20.4609 2.14668 2.60752
lowerneck -22.3635 -0.434447 -0.831113
upperneck 15.1122 0.159223 -2.47234
head 8.36363 -0.252997 -0.684032
rclavicle 2.93207e-014 1.11319e-014
rhumerus 8.30112 46.1637 -71.2521
rradius 107.67
rwrist -44.902
rhand -48.9844 -36.7639
rfingers 7.12502
rthumb -21.6141 -65.5776
lclavicle 2.93207e-014 1.11319e-014
lhumerus 6.82627 -43.8235 84.2385
lradius 100.778
lwrist -6.92514
lhand -52.0577 63.9934
lfingers 7.12502
lthumb -24.5628 -92.4378
rfemur 1.80122 -6.61605 19.2269
rtibia 30.052
rfoot -34.7464 -19.7064
rtoes -4.33011
lfemur -50.2695 -5.573 -28.4842
ltibia 42.754
lfoot -9.57981 -3.99944
ltoes -14.9389
147
root -17.8356 15.2797 4.61408 12.5698 -98.5167 6.91955
lowerback 13.5475 3.07599 -1.45737
upperback -10.4023 4.15501 2.87637
thorax -20.3095 2.23612 2.9994
lowerneck -22.2147 -0.498718 -1.11111
upperneck 15.2074 0.1367 -2.36567
head 8.37086 -0.269526 -0.605448
rclavicle -4.02539e-015 1.66979e-014
rhumerus 7.97141 47.0017 -70.4978
rradius 106.427
rwrist -46.1404
rhand -48.6734 -36.5582
rfingers 7.12502
rthumb -21.3154 -65.4059
lclavicle -4.02539e-015 1.66979e-014
lhumerus 5.86989 -44.2082 84.2021
lradius 99.5757
lwrist -6.24221
lhand -52.4308 65.8693
lfingers 7.12502
lthumb -24.9204 -94.2646
rfemur 1.2681 -6.27658 19.6024
rtibia 29.5223
rfoot -34.7327 -19.7271
rtoes -2.48786
lfemur -49.5836 -5.35766 -28.5462
ltibia 41.4066
lfoot -9.66348 -3.81709
ltoes -14.3317
148
root -17.901 15.3529 4.62847 13.4291 -98.781 6.52584
lowerback 13.2333 3.16529 -1.75333
upperback -10.3809 4.20932 2.86978
thorax -20.0968 2.30046 3.15121
lowerneck -22.0303 -0.490981 -0.992238
upperneck 15.2375 0.121251 -2.43986
head 8.34983 -0.277122 -0.651186
rclavicle 3.63279e-014 -1.59028e-014
rhumerus 7.66955 47.7487 -69.7348
rradius 104.811
rwrist -47.7755
rhand -48.2235 -35.2303
rfingers 7.12502
rthumb -20.8831 -64.1263
lclavicle 3.63279e-014 -1.59028e-014
lhumerus 4.94701 -44.6785 84.2643
lradius 98.0253
lwrist -5.70773
lhand -53.0482 69.3037
lfingers 7.12502
lthumb -25.5119 -97.6157
rfemur 1.16283 -5.94482 19.8773
rtibia 28.1095
rfoot -34.5361 -19.556
rtoes -0.847276
lfemur -49.1657 -5.31173 -28.6013
ltibia 40.2171
lfoot -9.61683 -3.36904
ltoes -14.2464
149
root -17.9628 15.4253 4.64538 12.8613 -98.9334 7.57678
lowerback 12.9768 3.20161 -1.51726
upperback -10.4327 4.28698 2.73749
thorax -19.9566 2.28578 2.84654
lowerneck -21.8458 -0.588926 -0.859947
upperneck 15.3568 -0.0742739 -2.33812
head 8.3567 -0.34988 -0.663794
rclavicle 4.92489e-014 5.88403e-014
rhumerus 6.96031 48.1773 -69.7502
rradius 102.695
rwrist -49.4229
rhand -47.3008 -33.1855
rfingers 7.12502
rthumb -19.9965 -62.1766
lclavicle 4.92489e-014 5.88403e-014
lhumerus 3.81077 -45.3247 84.3627
lradius 96.1798
lwrist -4.84888
lhand -53.0363 69.6659
lfingers 7.12502
lthumb -25.5005 -97.9795
rfemur 1.14484 -5.63399 20.3445
rtibia 26.6584
rfoot -34.1174 -19.5231
rtoes -0.0193732
lfemur -48.8811 -5.35683 -28.4335
ltibia 39.2133
lfoot -9.73548 -3.1234
ltoes -13.7382
150
root -18.0132 15.4961 4.64656 11.7459 -99.0748 9.14762
lowerback 12.6522 3.23334 -1.48087
upperback -10.4067 4.33697 2.74827
thorax -19.6997 2.30301 2.83558
lowerneck -21.6565 -0.737176 -1.00045
upperneck 15.3052 -0.300269 -2.0195
head 8.30513 -0.428054 -0.561557
rclavicle -1.963e-014 9.54166e-015
rhumerus 6.58847 48.5978 -69.4462
rradius 100.164
rwrist -50.9449
rhand -45.991 -32.0532
rfingers 7.12502
rthumb -18.7371 -61.1708
lclavicle -1.963e-014 9.54166e-015
lhumerus 2.72034 -45.707 84.5938
lradius 94.077
lwrist -3.65882
lhand -52.1741 68.6588
lfingers 7.12502
lthumb -24.6744 -97.088
rfemur 1.21485 -5.26605 20.8844
rtibia 25.1195
rfoot -33.6952 -19.886
rtoes 1.06893
lfemur -48.6986 -5.36304 -28.0281
ltibia 38.3191
lfoot -10.043 -3.03564
ltoes -13.4124
151
root -18.0473 15.564 4.64461 10.8179 -99.1588 10.5576
lowerback 12.4861 3.24229 -1.56139
upperback -10.4086 4.34438 2.84457
thorax -19.6083 2.32697 2.9991
lowerneck -21.5253 -0.781073 -0.900646
upperneck 15.4112 -0.393628 -2.01034
head 8.31775 -0.465472 -0.5868
rclavicle -3.34952e-014 -5.56597e-015
rhumerus 6.57651 49.1523 -68.7179
rradius 97.5206
rwrist -53.0898
rhand -44.0386 -32.5363
rfingers 7.12502
rthumb -16.8584 -61.8246
lclavicle -3.34952e-014 -5.56597e-015
lhumerus 1.5417 -45.8842 85.0676
lradius 91.8491
lwrist -1.65018
lhand -50.7286 67.4941
lfingers 7.12502
lthumb -23.2883 -96.1057
rfemur 1.205 -4.92805 21.3629
rtibia 23.6768
rfoot -33.2582 -20.4307
rtoes 0.519789
lfemur -48.5924 -5.45907 -27.5914
ltibia 37.3904
lfoot -10.3185 -2.82107
ltoes -13.2703
152
root -18.0746 15.6283 4.6493 10.7879 -99.188 11.0525
lowerback 12.2435 3.19112 -1.54125
upperback -10.3507 4.2743 2.8319
thorax -19.3545 2.29105 3.00168
lowerneck -21.696 -0.961629 -0.993
upperneck 15.7013 -0.631914 -1.87142
head 8.44439 -0.571546 -0.559307
rclavicle 6.06293e-015 1.59028e-015
rhumerus 6.64547 49.5483 -68.2693
rradius 94.8713
rwrist -56.2584
rhand -40.9351 -32.7453
rfingers 7.12502
rthumb -13.8691 -62.2628
lclavicle 6.06293e-015 1.59028e-015
lhumerus 0.676426 -46.001 85.2486
lradius 89.322
lwrist 0.712372
lhand -49.4745 65.4984
lfingers 7.12502
lthumb -22.0846 -94.2573
rfemur 1.31815 -4.76239 21.5452
rtibia 22.2628
rfoot -32.6873 -20.7024
rtoes 1.76416
lfemur -48.4257 -5.69943 -27.3939
ltibia 36.3475
lfoot -10.5621 -2.51621
ltoes -12.8089
153
root -18.0904 15.6889 4.65272 10.7732 -99.1866 11.3592
lowerback 12.2622 3.12705 -1.55478
upperback -10.2861 4.1856 2.83525
thorax -19.275 2.25409 3.03775
lowerneck -21.8199 -1.13348 -1.1573
upperneck 15.9545 -0.849342 -1.67792
head 8.55218 -0.665346 -0.498628
rclavicle -1.60022e-014 -2.3059e-014
rhumerus 6.01756 49.9589 -68.3931
rradius 92.1169
rwrist -59.872
rhand -37.0068 -34.9371
rfingers 7.12502
rthumb -10.0812 -64.6756
lclavicle -1.60022e-014 -2.3059e-014
lhumerus -0.340245 -45.8549 85.5823
lradius 86.608
lwrist 1.51533
lhand -47.8114 63.5259
lfingers 7.12502
lthumb -20.4872 -92.4649
rfemur 1.68873 -4.48578 21.6824
rtibia 20.9057
rfoot -32.0672 -20.9536
rtoes 1.08333
lfemur -48.0925 -6.07515 -27.2007
ltibia 35.2838
lfoot -10.9379 -2.30405
ltoes -12.3957
154
root -18.0913 15.7405 4.65359 10.0477 -99.2284 12.3588
lowerback 12.4155 3.04664 -1.47081
upperback -10.2638 4.09717 2.85535
thorax -19.3365 2.20573 3.03482
lowerneck -21.8105 -1.22101 -1.03641
upperneck 16.0738 -1.0229 -1.59337
head 8.58998 -0.730537 -0.513539
rclavicle 1.39149e-014 -1.03368e-014
rhumerus 5.19122 50.5395 -68.6738
rradius 89.2583
rwrist -63.3901
rhand -34.334 -34.7344
rfingers 7.12502
rthumb -7.50196 -64.5814
lclavicle 1.39149e-014 -1.03368e-014
lhumerus -1.70682 -45.8283 86.0312
lradius 84.0882
lwrist 1.37418
lhand -46.7759 62.5415
lfingers 7.12502
lthumb -19.4919 -91.5845
rfemur 2.02346 -4.12991 21.9564
rtibia 19.7161
rfoot -31.4972 -21.2317
rtoes 0.425268
lfemur -47.8202 -6.44023 -26.7859
ltibia 34.255
lfoot -11.4622 -2.13309
ltoes -12.2787
155
root -18.0893 15.7814 4.65529 9.56604 -99.4162 13.2082
lowerback 12.3536 3.00626 -1.42166
upperback -10.244 4.0528 2.87038
thorax -19.2608 2.18018 3.03984
lowerneck -21.7669 -1.27938 -0.893677
upperneck 16.0338 -1.17257 -1.47267
head 8.5675 -0.777449 -0.514997
rclavicle 4.09496e-014 4.53229e-014
rhumerus 4.60495 51.2219 -68.7559
rradius 86.4156
rwrist -66.8376
rhand -31.8403 -34.0247
rfingers 7.12502
rthumb -5.09449 -63.9434
lclavicle 4.09496e-014 4.53229e-014
lhumerus -3.16847 -46.2149 86.4945
lradius 81.7712
lwrist 1.24915
lhand -45.489 60.5918
lfingers 7.12502
lthumb -18.2541 -270.245
rfemur 2.18979 -3.75942 22.1269
rtibia 18.6927
rfoot -30.9987 -21.8166
rtoes -2.12264
lfemur -47.6099 -6.74286 -26.3312
ltibia 33.1173
lfoot -12.18 -2.06828
ltoes -11.797
156
root -18.0836 15.8163 4.6597 8.96502 -99.7528 14.0958
lowerback 12.3303 3.03004 -1.36283
upperback -10.183 4.10505 2.91457
thorax -19.1678 2.19937 3.04367
lowerneck -21.8066 -1.35938 -0.979824
upperneck 15.9901 -1.30106 -1.24312
head 8.5608 -0.817077 -0.44013
rclavicle 1.09332e-014 1.98785e-014
rhumerus 4.07322 52.0676 -68.7386
rradius 83.8749
rwrist -70.5639
rhand -30.4913 -33.9726
rfingers 7.12502
rthumb -3.79187 -63.9187
lclavicle 1.09332e-014 1.98785e-014
lhumerus -4.46546 -46.9548 86.8821
lradius 79.7432
lwrist 1.18258
lhand -44.6708 57.9836
lfingers 7.12502
lthumb -17.4669 -272.781
rfemur 2.35115 -3.38523 22.1983
rtibia 17.9513
rfoot -30.3709 -22.6351
rtoes -5.89802
lfemur -47.2301 -7.13227 -25.7407
ltibia 31.839
lfoot -13.067 -2.10019
ltoes -11.0212
